<svg width="188" height="144" viewBox="0 0 188 144" fill="none" xmlns="http://www.w3.org/2000/svg">
<path d="M0 102.057C0 79.3136 18.3752 60.8762 41.0423 60.8762H146.958C169.625 60.8762 188 79.3136 188 102.057C188 124.801 169.625 143.238 146.958 143.238H41.0423C18.3752 143.238 0 124.801 0 102.057Z" fill="#8759F2"/>
<path fill-rule="evenodd" clip-rule="evenodd" d="M134.286 41.1809H55.5049V14.3237H134.286V41.1809Z" fill="#FF51F3"/>
<path fill-rule="evenodd" clip-rule="evenodd" d="M42.9715 143.238L42.9715 -1.17396e-06L69.8286 0L69.8286 143.238L42.9715 143.238Z" fill="#FF51F3"/>
<path fill-rule="evenodd" clip-rule="evenodd" d="M121.752 143.238L121.752 -1.17396e-06L148.61 0L148.61 143.238L121.752 143.238Z" fill="#FF51F3"/>
<path fill-rule="evenodd" clip-rule="evenodd" d="M134.286 82.3618H55.5049V55.5046H134.286V82.3618Z" fill="#FF51F3"/>
<path fill-rule="evenodd" clip-rule="evenodd" d="M134.286 127.124H55.5049V100.267H134.286V127.124Z" fill="#FF51F3"/>
</svg>
